<svg width="20" height="20" viewBox="0 0 20 20" fill="none" xmlns="http://www.w3.org/2000/svg">
<path d="M2.5 9.25C2.08579 9.25 1.75 9.58579 1.75 10C1.75 10.4142 2.08579 10.75 2.5 10.75V9.25ZM4.16667 10.75C4.58088 10.75 4.91667 10.4142 4.91667 10C4.91667 9.58579 4.58088 9.25 4.16667 9.25V10.75ZM3.63639 15.303C3.34349 15.5959 3.34349 16.0708 3.63639 16.3637C3.92928 16.6566 4.40415 16.6566 4.69705 16.3637L3.63639 15.303ZM6.36371 14.697C6.65661 14.4041 6.65661 13.9292 6.36371 13.6363C6.07082 13.3434 5.59595 13.3434 5.30305 13.6363L6.36371 14.697ZM10.75 15.8333C10.75 15.4191 10.4142 15.0833 10 15.0833C9.58579 15.0833 9.25 15.4191 9.25 15.8333H10.75ZM9.25 17.5C9.25 17.9142 9.58579 18.25 10 18.25C10.4142 18.25 10.75 17.9142 10.75 17.5H9.25ZM14.697 13.6363C14.4041 13.3434 13.9292 13.3434 13.6363 13.6363C13.3434 13.9292 13.3434 14.4041 13.6363 14.697L14.697 13.6363ZM15.303 16.3637C15.5959 16.6566 16.0708 16.6566 16.3637 16.3637C16.6566 16.0708 16.6566 15.5959 16.3637 15.303L15.303 16.3637ZM4.697 3.63634C4.4041 3.34344 3.92923 3.34344 3.63634 3.63634C3.34344 3.92923 3.34344 4.4041 3.63634 4.697L4.697 3.63634ZM5.303 6.36366C5.5959 6.65656 6.07077 6.65656 6.36366 6.36366C6.65656 6.07077 6.65656 5.5959 6.36366 5.303L5.303 6.36366ZM15.8333 9.25C15.4191 9.25 15.0833 9.58579 15.0833 10C15.0833 10.4142 15.4191 10.75 15.8333 10.75V9.25ZM17.5 10.75C17.9142 10.75 18.25 10.4142 18.25 10C18.25 9.58579 17.9142 9.25 17.5 9.25V10.75ZM13.6363 5.303C13.3434 5.5959 13.3434 6.07077 13.6363 6.36366C13.9292 6.65656 14.4041 6.65656 14.6969 6.36366L13.6363 5.303ZM16.3636 4.697C16.6565 4.4041 16.6565 3.92923 16.3636 3.63634C16.0707 3.34344 15.5958 3.34344 15.303 3.63634L16.3636 4.697ZM10.75 2.5C10.75 2.08579 10.4142 1.75 10 1.75C9.58579 1.75 9.25 2.08579 9.25 2.5H10.75ZM9.25 4.16667C9.25 4.58088 9.58579 4.91667 10 4.91667C10.4142 4.91667 10.75 4.58088 10.75 4.16667H9.25ZM11.75 10C11.75 10.9665 10.9665 11.75 10 11.75V13.25C11.7949 13.25 13.25 11.7949 13.25 10H11.75ZM10 11.75C9.0335 11.75 8.25 10.9665 8.25 10H6.75C6.75 11.7949 8.20507 13.25 10 13.25V11.75ZM8.25 10C8.25 9.0335 9.0335 8.25 10 8.25V6.75C8.20507 6.75 6.75 8.20507 6.75 10H8.25ZM10 8.25C10.9665 8.25 11.75 9.0335 11.75 10H13.25C13.25 8.20507 11.7949 6.75 10 6.75V8.25ZM2.5 10.75H4.16667V9.25H2.5V10.75ZM4.69705 16.3637L6.36371 14.697L5.30305 13.6363L3.63639 15.303L4.69705 16.3637ZM9.25 15.8333V17.5H10.75V15.8333H9.25ZM13.6363 14.697L15.303 16.3637L16.3637 15.303L14.697 13.6363L13.6363 14.697ZM3.63634 4.697L5.303 6.36366L6.36366 5.303L4.697 3.63634L3.63634 4.697ZM15.8333 10.75H17.5V9.25H15.8333V10.75ZM14.6969 6.36366L16.3636 4.697L15.303 3.63634L13.6363 5.303L14.6969 6.36366ZM9.25 2.5V4.16667H10.75V2.5H9.25Z" fill="#FEFEFE"/>
</svg>
