<svg width="20" height="20" viewBox="0 0 20 20" fill="none" xmlns="http://www.w3.org/2000/svg">
<path d="M2.5 14.1667L2.64951 13.4317C2.35037 13.3709 2.04419 13.4974 1.87528 13.7517C1.70636 14.0059 1.70842 14.3372 1.88048 14.5894L2.5 14.1667ZM9.16667 2.5L9.18637 1.75026C8.88044 1.74222 8.6003 1.92087 8.47856 2.20166C8.35682 2.48244 8.41789 2.80903 8.63288 3.02685L9.16667 2.5ZM17.4167 10C17.4167 5.50047 13.7405 1.86996 9.18637 1.75026L9.14696 3.24974C12.9273 3.34911 15.9167 6.35202 15.9167 10H17.4167ZM9.16667 18.25C13.8546 18.25 17.4167 14.5491 17.4167 10H15.9167C15.9167 13.7368 13.0101 16.75 9.16667 16.75V18.25ZM1.88048 14.5894C3.41644 16.8404 6.2528 18.25 9.16667 18.25V16.75C6.69904 16.75 4.34919 15.5461 3.11952 13.7439L1.88048 14.5894ZM2.35049 14.9016C6.02889 15.6499 9.17917 13.7319 10.7443 11.0122C12.3118 8.28839 12.3462 4.65376 9.70046 1.97315L8.63288 3.02685C10.7229 5.14437 10.7373 8.01709 9.4442 10.2641C8.14873 12.5152 5.5978 14.0315 2.64951 13.4317L2.35049 14.9016Z" fill="#FEFEFE"/>
</svg>
